<svg xmlns="http://www.w3.org/2000/svg" xml:space="preserve" width="1500" height="163" data-id="lg_WXfPmqmetkASg0K4J7" data-version="1" viewBox="0 0 1500 163"><g data-padding="20"><g transform="translate(10 2.332)scale(.97139)"><rect width="585.868" height="116.142" x="69.045" y="-382.216" fill="none" rx="0" ry="0" transform="translate(456.55 382.42)"/><path fill="#fff" d="M561.929 90.565h-15.41q-5.17 0-7.85-1.3-2.69-1.31-3.62-4.27-.92-2.96-.92-7.88v-45.07q0-5.01.92-7.95.93-2.94 3.62-4.22 2.68-1.27 7.85-1.27h15.41q10.79 0 18.89 3.21 8.11 3.21 12.62 10.86 4.52 7.66 4.52 21 0 13.35-4.52 21.46-4.51 8.1-12.62 11.77-8.1 3.66-18.89 3.66m-3.67-58.77h-2.2q-3.32 0-4.52 1.41-1.2 1.4-1.2 4.82v33.12q0 3.36 1.2 4.82 1.2 1.45 4.52 1.45h2.31q10.73 0 16.63-5.27t5.9-18.26q0-8.69-2.69-13.48-2.68-4.79-7.75-6.7t-12.2-1.91m63.94 5.47v50.64q0 1.51-.63 2.08-.63.58-2.13.58h-10.69q-1.51 0-2.14-.58-.62-.57-.62-2.08v-55.86q0-5.01.92-7.95.93-2.94 3.62-4.22 2.68-1.27 7.85-1.27h13.3q26.2 0 26.2 20.12 0 6.12-2.06 10.04-2.06 3.91-5.12 6.09-3.06 2.19-6.02 3.29v.25q3.36 2.21 6.4 5.8 3.03 3.59 5.49 7.78t4.17 8.28q1.7 4.09 2.36 7.3.3 1.51.02 2.26-.27.75-1.73.75h-11.59q-1.31 0-2.29-.55-.97-.55-1.78-2.56-3.81-9.59-8.78-15.63-4.97-6.05-9.59-9.71-2.96-2.36-2.96-3.37 0-.8.96-2.2.6-.86 1.75-2.06 1.16-1.21 2.01-1.81t1.38-.75 1.63-.15q3.72 0 6.2-2.56t2.48-8.08q0-5.22-2.63-7.65-2.64-2.44-7.25-2.44h-3.01q-3.32 0-4.52 1.41-1.2 1.4-1.2 4.81m77.18 54.56q-10.44 0-18.17-4.02-7.73-4.01-11.97-12.09t-4.24-20.18q0-19.22 9.38-28.68 9.39-9.46 26.15-9.46 15.71 0 24.84 9.26 9.14 9.26 9.14 27.43 0 12.84-4.27 21.2t-12.15 12.45q-7.87 4.09-18.71 4.09m.3-13.55q9.03 0 13.4-6.48 4.36-6.47 4.36-16.81 0-11.99-4.11-18.02-4.12-6.02-13.25-6.02-18.02 0-18.02 23.74 0 10.59 4.34 17.09t13.28 6.5m70.09-11.75q-1.3 0-2.21-.65-.95-.65-2.26-1.86-1.3-1.2-2.91-2.96-.6-.7-.6-1.25t.6-1.26q3.11-3.51 5.67-5.17.61-.4 1.71-.4 3.41 0 5.9-2.56 2.48-2.56 2.38-8.28-.05-6.17-3.04-8.63-2.98-2.46-8.15-2.46h-2.41q-3.31 0-4.52 1.41-1.2 1.4-1.2 4.81v50.64q0 1.51-.63 2.08-.63.58-2.13.58h-10.69q-1.51 0-2.13-.58-.63-.57-.63-2.08v-55.86q0-5.01.93-7.95t3.61-4.22q2.69-1.27 7.86-1.27h11.94q14.4 0 21.33 5.64 6.92 5.65 6.92 17.29 0 8.73-3.63 14.25-3.64 5.52-9.44 8.13t-12.27 2.61m59.51 24.04h-15.25q-5.17 0-7.86-1.3-2.68-1.31-3.61-4.27t-.93-7.88v-45.07q0-5.01.93-7.95t3.61-4.22q2.69-1.27 7.86-1.27h13.8q12.04 0 18.52 4.41 6.47 4.42 6.47 12.45 0 3.96-1.81 7.22-1.8 3.27-4.74 5.57-2.93 2.31-6.4 3.47v.2q4.42.6 7.98 2.88 3.57 2.29 5.7 5.93 2.13 3.63 2.13 8.35 0 7.03-3.39 11.82-3.38 4.79-9.33 7.23-5.95 2.43-13.68 2.43m-11.44-53.8v35.58q0 3.37 1.21 4.82 1.2 1.46 4.51 1.46h3.82q5.07 0 8.15-2.61 3.09-2.61 3.09-7.13 0-4.31-3.01-6.77t-7.78-2.46h.05q-1.21 0-1.81-.35-1.3-.86-2.68-1.99t-2.99-2.73q-.5-.65-.5-.96 0-.4.5-.95 1.61-1.6 2.99-2.76 1.38-1.15 2.68-1.96.71-.35 1.81-.35h-.05q2.96 0 5.44-2.21 2.49-2.2 2.49-6.92 0-4.77-2.66-6.35t-6.83-1.58h-2.71q-3.31 0-4.51 1.4-1.21 1.41-1.21 4.82m76.23 55.06q-10.44 0-18.17-4.02-7.73-4.01-11.97-12.09t-4.24-20.18q0-19.22 9.39-28.68 9.38-9.46 26.14-9.46 15.71 0 24.84 9.26 9.14 9.26 9.14 27.43 0 12.84-4.27 21.2-4.26 8.36-12.14 12.45t-18.72 4.09m.3-13.55q9.03 0 13.4-6.48 4.37-6.47 4.37-16.81 0-11.99-4.12-18.02-4.12-6.02-13.25-6.02-18.02 0-18.02 23.74 0 10.59 4.35 17.09 4.34 6.5 13.27 6.5m69.06-15.86q-7.68 4.21-10.82 9.48-3.13 5.27-3.13 13.25v2.76q0 1.51-.6 2.08-.61.58-2.06.58h-10.44q-1.41 0-2.03-.58-.63-.57-.63-2.08v-2.76q0-7.48 1.66-12.67 1.65-5.19 5.49-9.21 3.84-4.01 10.46-7.88-7.52-4.31-11.81-10.41t-4.29-13.48v-4.87q0-1.45.5-2.2 2.26-3.32 6.32-6.98.75-.6 1.36-.6.6 0 1.25.6 2.21 1.91 3.71 3.64 1.51 1.73 2.61 3.34.51.8.51 2.2v4.87q0 4.12 3.33 8.68 3.34 4.57 9.16 7.58 5.77-2.96 8.28-7.12 2.51-4.17 2.51-9.14v-4.87q0-1.45.5-2.2 2.16-3.27 6.13-6.98.75-.6 1.25-.6.6 0 1.26.6 2.1 1.91 3.58 3.64t2.54 3.34q.5.8.5 2.2v4.87q0 8.28-4.04 13.95-4.04 5.68-10.31 9.24 5.92 3.51 9.63 7.55 3.72 4.04 5.47 9.54 1.76 5.49 1.76 13.37v2.76q0 1.51-.63 2.08-.63.58-2.13.58h-10.69q-1.51 0-2.13-.58-.63-.57-.63-2.08v-2.76q0-5.37-.98-9.33-.98-3.97-3.86-7.15-2.89-3.19-8.56-6.25m75.27 28.15h-25.24q-5.17 0-7.86-1.3-2.68-1.31-3.61-4.27t-.93-7.88v-45.07q0-5.01.93-7.95t3.61-4.22q2.69-1.27 7.86-1.27h23.59q1.2 0 1.8.4 1.31.9 2.71 2.15 1.41 1.26 2.96 3.02.51.65.51 1.05 0 .45-.51 1-1.55 1.76-2.96 3.01-1.4 1.26-2.71 2.16-.7.4-1.8.4h-14.06q-3.31 0-4.51 1.41-1.21 1.4-1.21 4.82v9.73h18.02q1.2 0 1.81.4 1.3.91 2.71 2.16 1.4 1.26 2.96 3.01.5.66.5 1.06 0 .45-.5 1-1.56 1.76-2.96 3.01-1.41 1.26-2.71 2.16-.71.4-1.81.4h-18.02v10.14q0 3.36 1.21 4.82 1.2 1.45 4.51 1.45h15.71q1.21 0 1.81.4 1.3.91 2.71 2.16 1.4 1.26 2.96 3.01.5.66.5 1.06 0 .45-.5 1-1.56 1.76-2.96 3.01-1.41 1.26-2.71 2.16-.7.4-1.81.4m30.21-53.3v50.64q0 1.51-.63 2.08-.63.58-2.13.58h-10.69q-1.51 0-2.13-.58-.63-.57-.63-2.08v-55.86q0-5.01.93-7.95t3.61-4.22q2.69-1.27 7.85-1.27h13.3q26.2 0 26.2 20.12 0 6.12-2.06 10.04-2.05 3.91-5.12 6.09-3.06 2.19-6.02 3.29v.25q3.36 2.21 6.4 5.8t5.5 7.78q2.45 4.19 4.16 8.28t2.36 7.3q.3 1.51.02 2.26-.27.75-1.73.75h-11.59q-1.3 0-2.28-.55t-1.78-2.56q-3.82-9.59-8.79-15.63-4.97-6.05-9.58-9.71-2.96-2.36-2.96-3.37 0-.8.95-2.2.6-.86 1.76-2.06 1.15-1.21 2-1.81.86-.6 1.38-.75.53-.15 1.64-.15 3.71 0 6.19-2.56 2.49-2.56 2.49-8.08 0-5.22-2.64-7.65-2.63-2.44-7.25-2.44h-3.01q-3.31 0-4.52 1.41-1.2 1.4-1.2 4.81"/><rect width="471.245" height="45.2" x="126.356" y="-346.745" fill="none" rx="0" ry="0" transform="translate(400 464.34)"/><path fill="#fff" d="M554.329 153.226q-2.48 0-4.11-.45t-2.62-1.12q-.98-.68-1.51-1.34-.17-.26-.31-.49-.14-.24-.2-.53-.08-.39-.15-1.02-.08-.64-.02-1.48.02-.35.13-.49.14-.15.45-.23.57-.14 1.48-.25.91-.1 1.3-.1.41 0 .66.15.25.16.61.53.39.41 1.34 1.05.96.63 2.95.63 1.92 0 2.89-.8.98-.8.98-2.23 0-.76-.46-1.43-.46-.68-1.67-1.35t-3.46-1.42q-3.71-1.25-5.35-3.1-1.64-1.86-1.64-5.16 0-2.73 1.33-4.57 1.33-1.83 3.67-2.77 2.35-.94 5.41-.94 2.37 0 3.92.56 1.55.55 2.41 1.25.86.69 1.11 1.12.16.25.21.38t.07.34q.06.61.04 1.35t-.14 1.68q-.06.31-.22.43-.13.1-.43.1-1.89.04-2.92-.2-.41-.09-.55-.19t-.35-.31q-.32-.38-.99-.87-.67-.5-2.16-.5-2.05 0-2.91.93-.86.92-.86 2.08 0 1.36 1.27 2.13 1.27.78 4.01 1.75 2.28.8 3.92 1.74t2.51 2.4q.87 1.47.87 3.87 0 2.99-1.38 4.96-1.37 1.97-3.75 2.94-2.37.97-5.38.97m24.71.03q-3.3 0-5.74-1.07-2.44-1.06-3.79-3.31-1.35-2.24-1.35-5.8 0-5.33 2.74-8.07 2.73-2.73 7.26-2.73 2.95 0 4.99 1.06 2.04 1.05 3.11 2.91 1.06 1.85 1.06 4.23 0 2.33-1.19 3.25-1.19.91-3.48.91h-8.38q.16 2.02 1.48 3.07t3.58 1.05q1.8 0 2.88-.53 1.09-.54 1.52-.85.37-.28.84-.26.37 0 1.06.15.7.15 1.38.54.49.25.49.7 0 .25-.1.72-.06.28-.2.79-.13.52-.35.97-.11.22-.37.41-.39.27-1.26.72t-2.37.8q-1.51.34-3.81.34m-4.8-12.62h6.36q1 0 1-.92 0-1.38-.87-2.33t-2.61-.95q-1.89 0-2.78 1.21t-1.1 2.99m24.02 10.66-4.08 1.88q-.41.17-.59.17-.17 0-.37-.13-.45-.31-1.03-1.54-.57-1.22-.57-3.76v-22.61q0-.47.19-.72.82-1.08 2.41-2.33.27-.19.48-.19.26 0 .49.19.84.65 1.42 1.21.57.57.98 1.12.2.25.2.72v21.42q0 1.29.21 2.2.22.91.51 1.46.33.64-.25.91m14.7 1.96q-3.3 0-5.75-1.07-2.44-1.06-3.78-3.31-1.35-2.24-1.35-5.8 0-5.33 2.73-8.07 2.74-2.73 7.27-2.73 2.95 0 4.99 1.06 2.04 1.05 3.1 2.91 1.07 1.85 1.07 4.23 0 2.33-1.19 3.25-1.2.91-3.48.91h-8.38q.16 2.02 1.48 3.07 1.31 1.05 3.58 1.05 1.8 0 2.88-.53 1.08-.54 1.51-.85.37-.28.84-.26.37 0 1.07.15.69.15 1.38.54.48.25.48.7 0 .25-.09.72-.06.28-.2.79-.14.52-.35.97-.12.22-.37.41-.39.27-1.26.72t-2.38.8q-1.5.34-3.8.34m-4.81-12.62h6.37q.99 0 .99-.92 0-1.38-.86-2.33-.87-.95-2.61-.95-1.9 0-2.78 1.21-.89 1.21-1.11 2.99m27.34-8.36q2.32 0 3.37.38 1.06.38 1.33.6.43.27.67.7.13.21.31.74.17.53.25 1.15.1.49.02.7-.08.2-.49.5-.46.31-1.02.55-.56.25-.91.34-.29.08-.45.04-.15-.04-.43-.23-.31-.22-.88-.48-.56-.26-1.56-.26-1.27 0-2.41.62-1.14.63-1.86 1.88-.71 1.25-.71 3.12 0 2.81 1.47 4.36 1.48 1.54 3.96 1.54 1.27 0 2.11-.26.84-.27 1.33-.54.39-.22.59-.11.21.11.32.38l1.43 3.23q.22.5-.23.72-.73.37-2.39.84t-4.1.47q-4.9 0-7.83-2.61t-2.93-7.8q0-3.32 1.35-5.69 1.35-2.36 3.83-3.62t5.86-1.26m17.53 20.98q-6.52 0-6.52-6.78v-9.16h-2.21q-.58 0-.81-.24-.22-.25-.22-.83v-2.41q0-.58.22-.83.23-.24.81-.24h2.21v-3.15q0-.46.2-.72.82-1.07 2.4-2.32.27-.2.49-.2.23 0 .47.2.84.64 1.41 1.21.58.56.99 1.11.19.26.19.72v3.15h3.46q.59 0 .81.24.23.25.23.83v2.41q0 .58-.23.83-.22.24-.81.24h-3.46v8.09q0 3.12 2.27 3.12.35 0 .64-.07.3-.07.51-.14.41-.16.58-.12.16.04.3.43l1.13 3.03q.18.48-.23.7-.29.14-1.42.52-1.12.38-3.41.38m29.63-8.82h-9.47q-.6 0-.6-.61v-3.49q0-.61.6-.61h9.47q.61 0 .61.61v3.49q0 .61-.61.61m28.93 8.8q-3.67 0-6.26-.96t-3.95-3.36q-1.35-2.4-1.35-6.74v-14.29q0-.57.19-.86.88-1.29 2.46-2.72.3-.23.51-.23.24 0 .49.23.86.74 1.44 1.42.59.67 1.02 1.3.2.31.2.86v13.32q0 2.79.59 4.24.6 1.46 1.77 1.99 1.17.52 2.89.52 1.76 0 2.93-.52 1.17-.53 1.76-1.99.58-1.45.58-4.24v-13.32q0-.57.2-.86.88-1.29 2.46-2.72.29-.23.51-.23.23 0 .48.23.86.74 1.45 1.42.59.67 1.02 1.3.19.31.19.86v14.29q0 4.34-1.48 6.74-1.49 2.4-4.09 3.36-2.61.96-6.01.96m29.55-20.96q2.85 0 4.7 1.28 1.84 1.28 2.75 3.52.91 2.23.91 5.12 0 3.13-1.07 5.63-1.06 2.5-3.13 3.96-2.07 1.47-5.14 1.47-1.58 0-2.6-.36-1.03-.37-1.64-.86-.62-.5-.97-.91h-.08v8.32q0 .47-.19.72-.83 1.08-2.41 2.33-.27.19-.49.19-.23 0-.48-.19-.84-.65-1.42-1.22-.58-.56-.99-1.11-.19-.25-.19-.72v-24.08q0-.47.19-.73.41-.54.99-1.11t1.42-1.21q.25-.2.52-.2.26 0 .53.2.82.64 1.41 1.23.58.59 1.03 1.21h.1q.33-.41 1.02-1 .68-.58 1.94-1.03t3.29-.45m-2.4 16q2.11 0 3.27-1.48 1.16-1.47 1.16-4.27 0-5.27-4.33-5.27-1.84 0-2.72.75t-1.25 1.59v4.24q0 1.9.98 3.17.97 1.27 2.89 1.27m21.6 3.02-4.08 1.88q-.41.17-.59.17-.17 0-.37-.13-.45-.31-1.03-1.54-.57-1.22-.57-3.76v-22.61q0-.47.19-.72.82-1.08 2.41-2.33.27-.19.48-.19.26 0 .49.19.84.65 1.42 1.21.57.57.99 1.12.19.25.19.72v21.42q0 1.29.22 2.2.21.91.5 1.46.34.64-.25.91m14.47 1.96q-4.92 0-7.79-2.62t-2.87-7.79q0-5.32 2.98-7.94 2.97-2.63 7.96-2.63 4.8 0 7.69 2.59t2.89 7.63q0 5.25-2.89 8-2.89 2.76-7.97 2.76m.2-4.73q2.15 0 3.24-1.34t1.09-4.58q0-3.08-1.1-4.34t-3.27-1.26q-2.09 0-3.29 1.35-1.2 1.36-1.2 4.41 0 3.18 1.14 4.47t3.39 1.29m20.04 4.73q-2.87 0-4.56-1.61-1.69-1.62-1.69-4.45 0-1.46.53-2.72.54-1.26 1.88-2.23t3.75-1.55q2.41-.59 6.16-.69 0-1.77-.89-2.55-.89-.79-2.66-.79-1.61 0-2.62.55-1.02.55-1.27.74-.27.24-.67.18-.52-.08-1.12-.27-.59-.2-1.28-.45-.1-.04-.21-.13-.12-.09-.14-.26 0-.1.02-.25.02-.14.1-.53.08-.4.23-.97.16-.58.3-.89.17-.33.58-.63.33-.27 2.01-.87 1.68-.61 4.87-.61 8.77 0 8.77 8.54v11.05q0 .37-.21.63-.2.27-.69.27h-2.93q-.31 0-.56-.09-.24-.09-.46-.34l-1.21-1.56h-.14q-.89 1.31-2.41 1.89-1.51.59-3.48.59m2.14-4.53q1.8 0 2.72-.92t1.17-1.9v-2.16q-2.71 0-4.07.42t-1.81 1.09-.45 1.45q0 1.14.71 1.58.7.44 1.73.44m22.29 4.53q-2.6 0-4.42-1.28-1.83-1.28-2.78-3.54-.94-2.25-.94-5.2 0-3.89 1.37-6.3 1.38-2.41 3.89-3.55 2.51-1.13 5.93-1.13 1.17 0 1.94.12t1.1.21v-7.28q0-.47.2-.72.82-1.08 2.4-2.33.27-.19.49-.19.25 0 .49.19.84.65 1.41 1.21.58.57.99 1.12.2.25.2.72v26.56q0 .37-.26.63-.25.27-.64.27h-2.91q-.32 0-.56-.09t-.46-.34l-1.21-1.56h-.14q-.25.39-.9.98-.66.6-1.9 1.05t-3.29.45m1.89-5q1.76 0 2.77-.67 1-.66 1.43-1.68v-8.18q-.31-.2-1.03-.47t-2.03-.27q-2.42 0-3.64 1.58-1.21 1.58-1.21 4.26 0 2.77 1.02 4.1 1.01 1.33 2.69 1.33m36.96-3.82h-9.48q-.6 0-.6-.61v-3.49q0-.61.6-.61h9.48q.6 0 .6.61v3.49q0 .61-.6.61m25.17 8.79q-2.48 0-4.11-.45t-2.62-1.12q-.98-.68-1.51-1.34-.17-.26-.31-.49-.14-.24-.2-.53-.07-.39-.15-1.02-.08-.64-.02-1.48.02-.35.13-.49.14-.15.45-.23.57-.14 1.48-.25.91-.1 1.3-.1.41 0 .66.15.25.16.61.53.39.41 1.34 1.05.96.63 2.95.63 1.92 0 2.89-.8.98-.8.98-2.23 0-.76-.46-1.43-.46-.68-1.67-1.35t-3.46-1.42q-3.71-1.25-5.35-3.1-1.64-1.86-1.64-5.16 0-2.73 1.33-4.57 1.33-1.83 3.67-2.77 2.35-.94 5.41-.94 2.37 0 3.92.56 1.55.55 2.41 1.25.86.69 1.11 1.12.16.25.21.38t.07.34q.06.61.04 1.35t-.14 1.68q-.06.31-.22.43-.13.1-.42.1-1.9.04-2.93-.2-.41-.09-.55-.19t-.35-.31q-.32-.38-.99-.87-.67-.5-2.16-.5-2.05 0-2.91.93-.86.92-.86 2.08 0 1.36 1.27 2.13 1.27.78 4.01 1.75 2.28.8 3.92 1.74t2.51 2.4q.87 1.47.87 3.87 0 2.99-1.38 4.96-1.37 1.97-3.75 2.94-2.37.97-5.38.97m21.08-13.63v12.13q0 .59-.25.81-.24.23-.83.23h-4.02q-.59 0-.83-.23-.24-.22-.24-.81v-26.42q0-.47.19-.72.82-1.08 2.4-2.33.28-.19.49-.19.26 0 .49.19.84.65 1.42 1.21.57.57.98 1.12.2.25.2.72v9.47h.08q.43-.57 1.11-1.14.68-.58 1.83-.97 1.14-.39 2.91-.39 1.8 0 3.46.74t2.72 2.5q1.05 1.76 1.05 4.81v11.4q0 .59-.24.81-.25.23-.83.23h-4.03q-.58 0-.83-.23-.24-.22-.24-.81v-10.33q0-2.17-.9-3.15-.9-.99-2.44-.99-1.52 0-2.36.66-.84.67-1.29 1.68m23.61 13.66q-2.87 0-4.56-1.61-1.69-1.62-1.69-4.45 0-1.46.54-2.72.53-1.26 1.87-2.23t3.75-1.55q2.41-.59 6.16-.69 0-1.77-.88-2.55-.89-.79-2.67-.79-1.6 0-2.62.55-1.01.55-1.27.74-.27.24-.66.18-.53-.08-1.12-.27-.6-.2-1.28-.45-.1-.04-.22-.13-.11-.09-.13-.26 0-.1.02-.25.01-.14.09-.53.08-.4.24-.97.15-.58.29-.89.18-.33.59-.63.33-.27 2.01-.87 1.68-.61 4.86-.61 8.77 0 8.77 8.54v11.05q0 .37-.2.63-.21.27-.7.27h-2.93q-.31 0-.55-.09-.25-.09-.46-.34l-1.21-1.56h-.14q-.9 1.31-2.41 1.89-1.52.59-3.49.59m2.15-4.53q1.8 0 2.71-.92.92-.92 1.18-1.9v-2.16q-2.72 0-4.08.42-1.35.42-1.8 1.09t-.45 1.45q0 1.14.7 1.58t1.74.44m21.39-13.71v1.45h.07q1.47-4.06 5.28-4.06.49 0 .8.05.31.04.43.08.29.1.29.45v4.71q0 .61-.7.33-.24-.1-.68-.2-.44-.11-1.22-.11-2.01 0-3.14 1.47-1.13 1.48-1.13 4.02v8.51q0 .59-.25.81-.24.23-.83.23h-4.02q-.59 0-.83-.23-.25-.22-.25-.81v-16.36q0-.47.2-.73.41-.54.99-1.11.57-.57 1.41-1.21.16-.12.31-.16.16-.04.28-.04.27 0 .54.2 1.63 1.27 2.27 2.17.18.23.18.54m19.59 18.24q-3.31 0-5.75-1.07-2.44-1.06-3.79-3.31-1.34-2.24-1.34-5.8 0-5.33 2.73-8.07 2.74-2.73 7.27-2.73 2.95 0 4.99 1.06 2.04 1.05 3.1 2.91 1.07 1.85 1.07 4.23 0 2.33-1.19 3.25-1.2.91-3.48.91h-8.38q.16 2.02 1.47 3.07 1.32 1.05 3.59 1.05 1.8 0 2.88-.53 1.08-.54 1.51-.85.37-.28.84-.26.37 0 1.07.15.69.15 1.37.54.49.25.49.7 0 .25-.09.72-.06.28-.2.79-.14.52-.35.97-.12.22-.37.41-.39.27-1.26.72t-2.38.8q-1.5.34-3.8.34m-4.81-12.62h6.37q.99 0 .99-.92 0-1.38-.86-2.33-.87-.95-2.61-.95-1.9 0-2.79 1.21-.88 1.21-1.1 2.99M500.053 89.57h-75.348a12.769 12.769 0 0 1-3.085-25.108 18.42 18.42 0 0 1 14.848-11.413c.74-14.448 12.664-25.787 27.132-25.798 10.644 0 20.147 6.26 24.555 15.549a24.94 24.94 0 0 1 36.804 21.877c-.025 13.742-11.163 24.875-24.906 24.893m-75.438-16.7a3.955 3.955 0 0 0 .079 7.91h75.348c8.882 0 16.114-7.232 16.114-16.114a16.125 16.125 0 0 0-27.233-11.64l-5.763 5.504-1.582-7.808a18.42 18.42 0 0 0-18.001-14.68 18.385 18.385 0 0 0-18.17 20.906l.813 5.967-5.932-1.04q-.848-.17-1.673-.158c-4.52 0-8.44 3.22-9.333 7.639l-.735 3.65-3.73-.113Z"/></g><path fill="transparent" stroke="transparent" d="M400.5 0h699v163h-699z"/></g></svg>