<svg xmlns="http://www.w3.org/2000/svg" xml:space="preserve" width="1500" height="1500" data-id="lg_WXfPmqmetkASg0K4J7" data-version="1" viewBox="0 0 1500 1500"><path stroke="transparent" d="M0 0h1500v1500H0z"/><g data-padding="20"><g transform="translate(-308.655 -320.587)scale(1.38968)"><rect width="585.868" height="116.142" x="69.045" y="312.432" fill="none" rx="0" ry="0" transform="translate(456.55 399.88)"/><path fill="#fff" d="M561.929 802.663h-15.41q-5.17 0-7.85-1.3-2.69-1.31-3.62-4.27-.92-2.96-.92-7.88v-45.06q0-5.02.92-7.96.93-2.93 3.62-4.21 2.68-1.28 7.85-1.28h15.41q10.79 0 18.89 3.21 8.11 3.21 12.62 10.86 4.52 7.66 4.52 21.01t-4.52 21.45q-4.51 8.11-12.62 11.77-8.1 3.66-18.89 3.66m-3.67-58.76h-2.2q-3.32 0-4.52 1.4-1.2 1.41-1.2 4.82v33.12q0 3.36 1.2 4.82 1.2 1.45 4.52 1.45h2.31q10.73 0 16.63-5.27 5.9-5.26 5.9-18.26 0-8.68-2.69-13.48-2.68-4.79-7.75-6.7-5.07-1.9-12.2-1.9m63.94 5.47v50.63q0 1.51-.63 2.09-.63.57-2.13.57h-10.69q-1.51 0-2.14-.57-.62-.58-.62-2.09v-55.85q0-5.02.92-7.96.93-2.93 3.62-4.21 2.68-1.28 7.85-1.28h13.3q26.2 0 26.2 20.12 0 6.12-2.06 10.04-2.06 3.91-5.12 6.1-3.06 2.18-6.02 3.28v.25q3.36 2.21 6.4 5.8 3.03 3.59 5.49 7.78t4.17 8.28q1.7 4.09 2.36 7.3.3 1.51.02 2.26-.27.75-1.73.75h-11.59q-1.31 0-2.29-.55-.97-.55-1.78-2.56-3.81-9.58-8.78-15.63t-9.59-9.71q-2.96-2.36-2.96-3.36 0-.81.96-2.21.6-.86 1.75-2.06 1.16-1.2 2.01-1.81.85-.6 1.38-.75t1.63-.15q3.72 0 6.2-2.56t2.48-8.08q0-5.22-2.63-7.65-2.64-2.44-7.25-2.44h-3.01q-3.32 0-4.52 1.41-1.2 1.4-1.2 4.82m77.18 54.55q-10.44 0-18.17-4.02-7.73-4.01-11.97-12.09t-4.24-20.18q0-19.22 9.38-28.68 9.39-9.46 26.15-9.46 15.71 0 24.84 9.26 9.14 9.26 9.14 27.43 0 12.85-4.27 21.2-4.27 8.36-12.15 12.45-7.87 4.09-18.71 4.09m.3-13.55q9.03 0 13.4-6.48 4.36-6.47 4.36-16.81 0-11.99-4.11-18.02-4.12-6.02-13.25-6.02-18.02 0-18.02 23.74 0 10.59 4.34 17.09t13.28 6.5m70.09-11.75q-1.3 0-2.21-.65-.95-.65-2.26-1.86-1.3-1.2-2.91-2.96-.6-.7-.6-1.25t.6-1.26q3.11-3.51 5.67-5.16.61-.41 1.71-.41 3.41 0 5.9-2.56 2.48-2.55 2.38-8.28-.05-6.17-3.04-8.63-2.98-2.46-8.15-2.46h-2.41q-3.31 0-4.52 1.41-1.2 1.4-1.2 4.82v50.63q0 1.51-.63 2.09-.63.57-2.13.57h-10.69q-1.51 0-2.13-.57-.63-.58-.63-2.09v-55.85q0-5.02.93-7.96.93-2.93 3.61-4.21 2.69-1.28 7.86-1.28h11.94q14.4 0 21.33 5.64 6.92 5.65 6.92 17.29 0 8.73-3.63 14.25-3.64 5.52-9.44 8.13t-12.27 2.61m59.51 24.04h-15.25q-5.17 0-7.86-1.3-2.68-1.31-3.61-4.27t-.93-7.88v-45.06q0-5.02.93-7.96.93-2.93 3.61-4.21 2.69-1.28 7.86-1.28h13.8q12.04 0 18.52 4.41 6.47 4.42 6.47 12.45 0 3.96-1.81 7.23-1.8 3.26-4.74 5.57-2.93 2.31-6.4 3.46v.2q4.42.6 7.98 2.89 3.57 2.28 5.7 5.92t2.13 8.35q0 7.03-3.39 11.82-3.38 4.8-9.33 7.23t-13.68 2.43m-11.44-53.8v35.59q0 3.36 1.21 4.81 1.2 1.46 4.51 1.46h3.82q5.07 0 8.15-2.61 3.09-2.61 3.09-7.13 0-4.31-3.01-6.77t-7.78-2.46h.05q-1.21 0-1.81-.35-1.3-.86-2.68-1.98-1.38-1.13-2.99-2.74-.5-.65-.5-.95 0-.4.5-.96 1.61-1.6 2.99-2.76 1.38-1.15 2.68-1.95.71-.36 1.81-.36h-.05q2.96 0 5.44-2.2 2.49-2.21 2.49-6.93 0-4.77-2.66-6.35t-6.83-1.58h-2.71q-3.31 0-4.51 1.41-1.21 1.4-1.21 4.81m76.23 55.06q-10.44 0-18.17-4.02-7.73-4.01-11.97-12.09t-4.24-20.18q0-19.22 9.39-28.68 9.38-9.46 26.14-9.46 15.71 0 24.84 9.26 9.14 9.26 9.14 27.43 0 12.85-4.27 21.2-4.26 8.36-12.14 12.45t-18.72 4.09m.3-13.55q9.03 0 13.4-6.48 4.37-6.47 4.37-16.81 0-11.99-4.12-18.02-4.12-6.02-13.25-6.02-18.02 0-18.02 23.74 0 10.59 4.35 17.09 4.34 6.5 13.27 6.5m69.06-15.86q-7.68 4.21-10.82 9.48-3.13 5.27-3.13 13.25v2.76q0 1.51-.6 2.09-.61.57-2.06.57h-10.44q-1.41 0-2.03-.57-.63-.58-.63-2.09v-2.76q0-7.47 1.66-12.67 1.65-5.19 5.49-9.21 3.84-4.01 10.46-7.88-7.52-4.31-11.81-10.41t-4.29-13.48v-4.86q0-1.46.5-2.21 2.26-3.31 6.32-6.98.75-.6 1.36-.6.6 0 1.25.6 2.21 1.91 3.71 3.64 1.51 1.73 2.61 3.34.51.8.51 2.21v4.86q0 4.12 3.33 8.69 3.34 4.56 9.16 7.57 5.77-2.96 8.28-7.12 2.51-4.17 2.51-9.14v-4.86q0-1.46.5-2.21 2.16-3.26 6.13-6.98.75-.6 1.25-.6.6 0 1.26.6 2.1 1.91 3.58 3.64t2.54 3.34q.5.8.5 2.21v4.86q0 8.29-4.04 13.96t-10.31 9.23q5.92 3.51 9.63 7.55 3.72 4.04 5.47 9.54 1.76 5.49 1.76 13.37v2.76q0 1.51-.63 2.09-.63.57-2.13.57h-10.69q-1.51 0-2.13-.57-.63-.58-.63-2.09v-2.76q0-5.37-.98-9.33-.98-3.97-3.86-7.15-2.89-3.19-8.56-6.25m75.27 28.15h-25.24q-5.17 0-7.86-1.3-2.68-1.31-3.61-4.27t-.93-7.88v-45.06q0-5.02.93-7.96.93-2.93 3.61-4.21 2.69-1.28 7.86-1.28h23.59q1.2 0 1.8.4 1.31.9 2.71 2.16 1.41 1.25 2.96 3.01.51.65.51 1.05 0 .45-.51 1.01-1.55 1.75-2.96 3.01-1.4 1.25-2.71 2.15-.7.41-1.8.41h-14.06q-3.31 0-4.51 1.4-1.21 1.41-1.21 4.82v9.73h18.02q1.2 0 1.81.41 1.3.9 2.71 2.15 1.4 1.26 2.96 3.02.5.65.5 1.05 0 .45-.5 1-1.56 1.76-2.96 3.01-1.41 1.26-2.71 2.16-.71.4-1.81.4h-18.02v10.14q0 3.36 1.21 4.82 1.2 1.45 4.51 1.45h15.71q1.21 0 1.81.41 1.3.9 2.71 2.15 1.4 1.26 2.96 3.01.5.66.5 1.06 0 .45-.5 1-1.56 1.76-2.96 3.01-1.41 1.26-2.71 2.16-.7.4-1.81.4m30.21-53.29v50.63q0 1.51-.63 2.09-.63.57-2.13.57h-10.69q-1.51 0-2.13-.57-.63-.58-.63-2.09v-55.85q0-5.02.93-7.96.93-2.93 3.61-4.21 2.69-1.28 7.85-1.28h13.3q26.2 0 26.2 20.12 0 6.12-2.06 10.04-2.05 3.91-5.12 6.1-3.06 2.18-6.02 3.28v.25q3.36 2.21 6.4 5.8t5.5 7.78q2.45 4.19 4.16 8.28t2.36 7.3q.3 1.51.02 2.26-.27.75-1.73.75h-11.59q-1.3 0-2.28-.55t-1.78-2.56q-3.82-9.58-8.79-15.63t-9.58-9.71q-2.96-2.36-2.96-3.36 0-.81.95-2.21.6-.86 1.76-2.06 1.15-1.2 2-1.81.86-.6 1.38-.75.53-.15 1.64-.15 3.71 0 6.19-2.56 2.49-2.56 2.49-8.08 0-5.22-2.64-7.65-2.63-2.44-7.25-2.44h-3.01q-3.31 0-4.52 1.41-1.2 1.4-1.2 4.82m-568.856 52.295h-75.348a12.769 12.769 0 0 1-3.085-25.108 18.42 18.42 0 0 1 14.848-11.413c.74-14.448 12.664-25.787 27.132-25.798 10.644 0 20.147 6.26 24.555 15.549a24.94 24.94 0 0 1 36.804 21.877c-.025 13.742-11.163 24.875-24.906 24.893m-75.438-16.701a3.955 3.955 0 0 0 .079 7.91h75.348c8.882 0 16.114-7.232 16.114-16.114a16.125 16.125 0 0 0-27.233-11.64l-5.763 5.504-1.582-7.808a18.42 18.42 0 0 0-18.001-14.68 18.385 18.385 0 0 0-18.17 20.906l.813 5.967-5.932-1.04q-.848-.17-1.673-.158c-4.52 0-8.44 3.22-9.333 7.639l-.735 3.65-3.73-.113Z"/></g><path fill="transparent" stroke="transparent" stroke-width="1.431" d="M250 667.024h1000v165.952H250z"/></g></svg>